<?xml version="1.0" encoding="UTF-8"?>
<!DOCTYPE svg PUBLIC "-//W3C//DTD SVG 1.1//EN" "http://www.w3.org/Graphics/SVG/1.1/DTD/svg11.dtd">
<!-- Creator: CorelDRAW -->
<svg xmlns="http://www.w3.org/2000/svg" xml:space="preserve" width="100mm" height="100mm" version="1.1" style="shape-rendering:geometricPrecision; text-rendering:geometricPrecision; image-rendering:optimizeQuality; fill-rule:evenodd; clip-rule:evenodd"
viewBox="0 0 10000 10000"
 xmlns:xlink="http://www.w3.org/1999/xlink"
 xmlns:xodm="http://www.corel.com/coreldraw/odm/2003">
 <defs>
  <style type="text/css">
   <![CDATA[
    .fil0 {fill:#231F20;fill-rule:nonzero}
   ]]>
  </style>
 </defs>
 <g id="Слой_x0020_1">
  <metadata id="CorelCorpID_0Corel-Layer"/>
  <g id="_1569175957936">
   <g>
    <path class="fil0" d="M4811.09 2111.76l152 0c105.95,42.56 238.07,68.06 299.62,164.04 69.13,107.81 81.28,257.25 36.57,384.78 -38.1,35.19 -89.77,49.64 -135.68,71.25 5.45,49.13 13.44,97.9 21.17,146.74 85.54,-10.58 186.3,4.49 255.96,-46.74 41.88,-30.81 14.63,-105.83 46.75,-148.78 7.1,34.45 12.79,69.12 17.08,104.03 45.56,26.46 89.77,64.11 146.39,58.21 357.19,0.34 714.38,-1.03 1071.19,0.16 39.26,-3.07 57.97,38.6 85.01,60.01 0.85,-75.83 0.5,-151.66 3.92,-227.54 10.58,0.34 31.75,0.69 42.17,0.85 2.22,66.65 -4.92,134.94 13.6,199.95 20.01,3.83 48.49,-7.65 60.89,8.49 15.84,20.64 1.88,52.02 3.41,78.21 109.67,3.23 220.53,10.58 329.35,-8.15 73.56,-6.64 152.63,-31.36 220.99,-3.44 24.09,9.84 32.24,67.85 8.2,77.71 -85.08,34.88 -182.73,8.9 -274.01,-2.4 -145.15,-17.98 -290.25,13.1 -435.27,4.92 -4.92,19.71 -9.53,39.45 -14.1,59.16 -139.44,1.53 -278.84,-0.85 -418.04,-0.16 -46.25,-1.19 -97.08,8.84 -126.34,47.78 -40.98,51.17 -90.62,94.88 -130.07,147.24 -12.75,96.07 24.82,189.23 46.41,281.41 -32.81,11.91 -65.8,23.12 -98.11,35.37 -33.15,103.88 -20.06,236.86 -115.12,309.56 -52.55,39.45 -98.95,88.58 -158.99,116.63 -43.71,19.71 -90.62,-0.85 -134.49,-7.3 -163.72,-24.82 -299.43,-125.49 -445.64,-194.87 -9.53,39.69 -20.24,78.71 -30.96,118 44.37,28.73 101.68,53.21 116.42,109.67 22.44,82.63 3.73,169.33 0.5,253.52 -6.99,77.21 -9.18,154.89 -16.48,232.09 -7.14,74.98 -50.51,139.44 -95.04,197.75 -41.65,-10.21 -82.47,-22.28 -123.61,-33.15 -44.37,95.25 -7.49,213.55 65.64,284.45 190.1,206.75 293.13,472.86 389.7,732.16 16.48,54.74 72.76,87.31 82.29,144.86 15.88,61.2 38.6,122.58 33.34,186.85 -7.3,112.74 -15.48,225.45 -26.86,337.85 -7.94,82.47 -38.42,164.76 -20.4,248.07 13.44,67.84 21.78,139.59 -3.07,206.08 -33.5,83.48 -33.15,174.78 -33.66,263.37 1.53,58.21 4.76,122.42 45.22,168.67 45.78,60.99 92.14,123.69 152.07,170.62 66.7,52.25 168.49,46.75 226.83,113.93 18.36,36.72 5.29,79.56 4.76,118.85 -184.15,27.89 -376.79,29.92 -555.63,-27.54 -100.99,-32.81 -212.35,23.47 -308.95,-31.96 6.65,-115.04 39.52,-226.19 74.12,-336.09 24.68,-78.36 -1.53,-163.75 -3.23,-245.19 -1.19,-70.41 -37.41,-132.61 -51.36,-200.29 -35.85,-145.76 -50.59,-296.31 -58.32,-446.25 -3.82,-74.05 53.55,-129.22 56.12,-201.08 15.01,-62.72 21.52,-152.47 -35.94,-181.96 -60.99,-31.29 -160.84,15.88 -199.28,-57.65 -80.25,-118.69 -158.3,-239.05 -238.39,-357.74 -27.89,-51.17 -94.88,-39.11 -140.78,-61.54 -40.98,-37.76 -61.38,-91.12 -86.89,-139.25 -11.96,56.34 -36.57,110.23 -76.17,152.01 -62.67,66.14 -87.31,154.38 -120.73,236.35 -24.97,58.62 -42.12,120.32 -52.93,183.09 -8.24,47.91 -11.06,103.72 -53.9,134.94 -62.92,47.63 -85.35,127.87 -142.88,180.23 -41.52,42.18 -73.87,94.66 -83.13,153.07 -8.05,50.73 10.21,103.03 -2.65,153.46 -23.28,92.6 -74.3,174.12 -111.71,260.99 -26.46,61.04 -40.3,126.84 -69.37,186.88 -19.39,41.99 -69.03,55.56 -96.23,90.81 -78.01,137.14 -115.24,300.59 -75.84,453.1 16.4,63.47 66.62,139.85 25.17,190.5 -30.97,37.83 -96.57,14.63 -145.2,19.05l-150.31 0c-39.59,-5.61 -94.22,1.41 -115.09,-32.68 -45.85,-74.86 -22.8,-174.28 1.69,-258.57 36.44,-125.44 67.15,-252.49 98.95,-378.99 21.43,-62.07 -29.42,-117.66 -24.82,-179.73 -5.11,-91.47 51.51,-166.98 92.6,-243.42 38.42,-67.84 24.82,-149.62 51.51,-221.22 60.35,-155.42 174.44,-281.91 242.46,-433.57 20.9,-61.73 -1.69,-127.34 2.38,-190.95 8.3,-120.01 27.22,-240.14 49.58,-358.2 8.61,-45.45 21.78,-94.03 4.07,-139.09 -21.21,-53.49 -31.31,-111.13 -24.6,-168.22 6.23,-52.92 -23.63,-105.07 -3.92,-156.61 10.37,-43.71 50.51,-68.34 82.63,-95.57 5.77,-179.55 -59.5,-356.05 -32.15,-535.09 31.27,-38.76 81.62,-52.71 125.31,-72.26 -64.11,-13.23 -128.19,-26.7 -191.96,-40.8 0.05,-5.45 -0.16,-11.25 -0.16,-16.83 0,-66.57 8.31,-133.11 22.55,-198.1 24.14,-110.21 10.58,-224.45 28.05,-335.47 2.65,-28.23 33.5,-37.76 57.81,-38.76 58.31,-2.13 158.98,35.75 173.92,-20.68 36.14,-136.55 -31.12,-283.45 0.5,-423.04 30.61,-164.76 104.4,-331.73 242.62,-433.73 95.25,-64.27 232.83,-102.18 332.24,-25.51l32.65 -22.09c-59.68,-156.88 -42.74,-333.46 46.2,-476.24 59.54,-95.6 163.41,-150.12 267.78,-183.3l0.1 0.02zm933.55 1072.67c-5.11,40.8 -17.67,81.28 -57.12,100.83 52.2,-0.86 114.69,17.4 156.16,-14.38 23.75,-18.21 -2.22,-59.69 -3.41,-89.61 -31.24,0.5 -64.47,1.8 -95.54,3.09l-0.09 0.07zm-107.74 115.31c-7.17,1.09 -13.44,17.01 -17.86,22.78 8.18,55.27 49.48,100.54 77.02,148.43 40.14,-56.46 80.75,-112.9 119.06,-170.71 -59.59,-4.68 -119.16,-9.49 -178.22,-0.5z"/>
   </g>
  </g>
 </g>
</svg>
