<?xml version="1.0" encoding="UTF-8"?>
<svg xmlns="http://www.w3.org/2000/svg" height="300" viewBox="-57.5 -57.5 300 300" width="300">
  <path d="m210.236 57.097c-10.225-13.454-25.089-22.119-41.836-24.397-2.848-.363-5.742-.573-8.599-.573-10.334 0-20.238 2.465-29.44 7.324-1.569.831-3.108 1.732-4.575 2.669l-.072.041-.051.048-5.105 3.839-1.616 1.204 1.22 1.61 13.174 17.326 1.217 1.583 1.596-1.202 3.945-3.002c.729-.448 1.51-.898 2.313-1.327 5.446-2.878 11.317-4.336 17.44-4.336 1.683 0 3.39.121 5.081.342 9.931 1.355 18.734 6.483 24.799 14.465 6.078 7.956 8.678 17.813 7.332 27.748-2.519 18.509-18.49 32.473-37.15 32.473-1.689 0-3.387-.108-5.072-.34-7.781-1.063-14.929-4.458-20.645-9.858-.621-.585-1.248-1.219-1.873-1.878l-49.594-65.184-3.161-4.157-.014.193-2.07-2.714-.611-.745c-1.299-1.44-2.604-2.769-3.92-4.009-10.037-9.469-22.597-15.465-36.313-17.342-2.949-.398-5.943-.598-8.908-.598-32.813 0-60.881 24.529-65.301 57.068-2.361 17.426 2.219 34.754 12.893 48.782 10.678 14.03 26.154 23.065 43.576 25.434 2.969.392 5.994.597 8.973.597 10.758 0 21.072-2.576 30.666-7.64.363-.187.705-.382 1.059-.585l.404-.223 2.016-1.135-1.4-1.83-13.383-17.581-.986-1.289-1.457.679c-5.404 2.534-11.129 3.828-17.014 3.828-1.802 0-3.615-.121-5.41-.363-21.943-2.989-37.375-23.268-34.4-45.211 2.687-19.811 19.791-34.755 39.777-34.755 1.803 0 3.631.123 5.428.365 8.336 1.133 15.987 4.788 22.119 10.564.683.648 1.362 1.33 2.018 2.05l38.973 51.217 3.145 4.131.02-.205 12.701 16.693.593.718c1.249 1.398 2.499 2.684 3.768 3.875 9.646 9.09 21.698 14.852 34.86 16.639 2.792.369 5.672.576 8.566.576 31.474 0 58.412-23.565 62.658-54.774 2.271-16.742-2.111-33.374-12.354-46.828z" fill="#97a3aa"></path>
  <path d="m102.384 144.516c-.205-.203-.429-.408-.619-.608l-25.145-33.037c-1.091-1.221-2.281-2.438-3.535-3.619-9.355-8.811-21.021-14.392-33.762-16.135-1.211-.144-2.43-.266-3.641-.354h-1.867l9.273 12.138c.202.192.428.426.615.624l25.146 33.025c1.09 1.219 2.281 2.441 3.539 3.627 9.348 8.806 21.021 14.381 33.756 16.113 1.227.154 2.438.277 3.649.365h1.862z" fill="#66ccca"></path>
</svg>
