<?xml version="1.0" encoding="UTF-8"?>
<!DOCTYPE svg PUBLIC "-//W3C//DTD SVG 1.1//EN" "http://www.w3.org/Graphics/SVG/1.1/DTD/svg11.dtd">
<!-- Creator: CorelDRAW -->
<svg xmlns="http://www.w3.org/2000/svg" xml:space="preserve" width="100mm" height="100mm" version="1.1" style="shape-rendering:geometricPrecision; text-rendering:geometricPrecision; image-rendering:optimizeQuality; fill-rule:evenodd; clip-rule:evenodd"
viewBox="0 0 10000 10000"
 xmlns:xlink="http://www.w3.org/1999/xlink"
 xmlns:xodm="http://www.corel.com/coreldraw/odm/2003">
 <defs>
  <style type="text/css">
   <![CDATA[
    .str0 {stroke:#2B2A29;stroke-width:20;stroke-miterlimit:22.9256}
    .fil0 {fill:none}
    .fil2 {fill:#2B2A29}
    .fil1 {fill:#7688A1}
   ]]>
  </style>
 </defs>
 <g id="Слой_x0020_1">
  <metadata id="CorelCorpID_0Corel-Layer"/>
  <path class="fil0 str0" d="M1164.27 3329.55l4607.93 0c275,0 500,225 500,500l0 788.76c8.2,-5.66 16.6,-11.15 25.23,-16.44l880.51 -539.63 814.85 -499.39c158.49,-97.14 343.38,-100.77 505.57,-9.95 162.19,90.83 255.7,250.37 255.7,436.26l0 1039.02 0 1039.02c0,185.89 -93.51,345.43 -255.7,436.26 -162.19,90.82 -347.08,87.19 -505.57,-9.95l-814.85 -499.39 -880.51 -539.63c-8.63,-5.29 -17.03,-10.78 -25.23,-16.44l0 756.26c0,275 -225,500 -500,500l-4607.93 0c-275,0 -500,-225 -500,-500l0 -2364.76c0,-275 225,-500 500,-500z"/>
  <rect class="fil0 str0" x="144.12" y="1663.41" width="9098.29" height="6631.99"/>
  <path class="fil1 str0" d="M9242.41 1663.42l-9098.29 0 0 6631.99 9098.29 0 0 -6631.99zm-8078.14 1666.13l4607.93 0c275,0 500,225 500,500l0 788.76c8.2,-5.66 16.6,-11.15 25.23,-16.44l880.51 -539.63 814.85 -499.39c158.49,-97.14 343.38,-100.77 505.57,-9.95 162.19,90.83 255.7,250.37 255.7,436.26l0 1039.02 0 1039.02c0,185.89 -93.51,345.43 -255.7,436.26 -162.19,90.82 -347.08,87.19 -505.57,-9.95l-814.85 -499.39 -880.51 -539.63c-8.63,-5.29 -17.03,-10.78 -25.23,-16.44l0 756.26c0,275 -225,500 -500,500l-4607.93 0c-275,0 -500,-225 -500,-500l0 -2364.76c0,-275 225,-500 500,-500z"/>
  <path class="fil2 str0" d="M9242.41 1663.42l-9098.29 0 0 6631.99 9098.29 0 0 -6631.99zm-8078.14 1666.13l4607.93 0c275,0 500,225 500,500l0 788.76c8.2,-5.66 16.6,-11.15 25.23,-16.44l880.51 -539.63 814.85 -499.39c158.49,-97.14 343.38,-100.77 505.57,-9.95 162.19,90.83 255.7,250.37 255.7,436.26l0 1039.02 0 1039.02c0,185.89 -93.51,345.43 -255.7,436.26 -162.19,90.82 -347.08,87.19 -505.57,-9.95l-814.85 -499.39 -880.51 -539.63c-8.63,-5.29 -17.03,-10.78 -25.23,-16.44l0 756.26c0,275 -225,500 -500,500l-4607.93 0c-275,0 -500,-225 -500,-500l0 -2364.76c0,-275 225,-500 500,-500z"/>
 </g>
</svg>
